<svg width="490" height="200" viewBox="0 0 490 200" fill="none" xmlns="http://www.w3.org/2000/svg">
<path d="M93.9003 61.1556C93.5259 61.1556 93.2298 61.0312 93.0115 60.7828C92.7932 60.5341 92.6842 60.2233 92.6842 59.8504V1.39043C92.6842 1.01757 92.7932 0.706723 93.0115 0.458084C93.2298 0.209445 93.5261 0.085022 93.9003 0.085022H106.063C106.437 0.085022 106.733 0.209445 106.952 0.458084C107.17 0.706723 107.279 1.01757 107.279 1.39043V24.8863H110.086L120.751 0.830938C121.001 0.333661 121.5 0.085022 122.248 0.085022H135.346C135.908 0.085022 136.189 0.333661 136.189 0.830938L136.002 1.57685L122.903 29.3618L137.966 59.6642C138.091 59.9128 138.153 60.1304 138.153 60.3168C138.153 60.5654 138.06 60.7674 137.873 60.9229C137.686 61.0783 137.436 61.156 137.124 61.156H122.997C122.373 61.156 121.905 60.8763 121.594 60.317L110.46 37.194H107.279V59.8508C107.279 60.2239 107.17 60.5345 106.952 60.7832C106.734 61.0318 106.437 61.156 106.063 61.156H93.9005L93.9003 61.1556ZM147.002 61.9015C144.569 61.9015 142.573 61.684 141.014 61.2489C140.39 61.0625 140.079 60.5963 140.079 59.8504V50.8063C140.079 49.9362 140.422 49.5942 141.108 49.7806C142.231 49.9051 142.885 49.9671 143.072 49.9671C143.946 49.9671 144.569 49.4853 144.944 48.5219C145.318 47.5584 145.567 45.8024 145.692 43.254L147.095 16.0286C147.095 15.1585 147.501 14.7232 148.312 14.7232H178.344C178.718 14.7232 179.014 14.8474 179.233 15.0963C179.451 15.3449 179.56 15.6555 179.56 16.0286V59.8502C179.56 60.7205 179.155 61.1556 178.344 61.1556H166.556C165.807 61.1556 165.433 60.7205 165.433 59.8502V26.5643H159.726L158.697 46.1444C158.385 51.8007 157.324 55.8411 155.516 58.2653C153.707 60.6894 150.869 61.9015 147.002 61.9015ZM188.783 61.1556C188.471 61.1556 188.206 61.0312 187.988 60.7828C187.769 60.5341 187.66 60.2233 187.66 59.8504V16.0288C187.66 15.6557 187.769 15.3451 187.988 15.0965C188.206 14.8478 188.471 14.7234 188.783 14.7234H199.636C200.01 14.7234 200.306 14.8476 200.524 15.0965C200.743 15.3451 200.852 15.6557 200.852 16.0288V26.5647C200.852 29.8593 200.477 35.7953 199.729 44.3732H199.916L201.132 40.4572C202.13 36.6034 203.097 33.5264 204.033 31.2267L209.833 15.5626C210.083 15.0034 210.519 14.7236 211.143 14.7236H222.651C223.462 14.7236 223.867 15.1276 223.867 15.9357V59.8506C223.867 60.2237 223.758 60.5343 223.54 60.783C223.321 61.0316 223.025 61.1558 222.651 61.1558H211.798C211.424 61.1558 211.128 61.0314 210.91 60.783C210.691 60.5343 210.582 60.2235 210.582 59.8506V49.8742C210.582 48.1337 210.707 45.492 210.956 41.949C211.206 38.4059 211.455 35.2669 211.705 32.5321H211.518C209.709 38.4372 208.43 42.4463 207.682 44.5596L201.788 60.3168C201.601 60.8761 201.164 61.1558 200.478 61.1558H188.783L188.783 61.1556ZM266.677 14.7232C267.051 14.7232 267.348 14.8474 267.566 15.0963C267.784 15.3449 267.894 15.6555 267.894 16.0286V59.8502C267.894 60.2233 267.784 60.5339 267.566 60.7825C267.348 61.0312 267.051 61.1554 266.677 61.1554H254.982C254.608 61.1554 254.312 61.031 254.094 60.7825C253.875 60.5339 253.766 60.2231 253.766 59.8502V43.9066H246.094V59.8502C246.094 60.2233 245.985 60.5339 245.767 60.7825C245.549 61.0312 245.252 61.1554 244.878 61.1554H233.09C232.778 61.1554 232.513 61.031 232.294 60.7825C232.076 60.5339 231.967 60.2231 231.967 59.8502V16.0286C231.967 15.6555 232.076 15.3449 232.294 15.0963C232.513 14.8476 232.778 14.7232 233.09 14.7232H244.878C245.252 14.7232 245.549 14.8474 245.767 15.0963C245.985 15.3449 246.094 15.6555 246.094 16.0286V32.1588H253.766V16.0286C253.766 15.6555 253.875 15.3449 254.094 15.0963C254.312 14.8476 254.608 14.7232 254.982 14.7232H266.677ZM277.21 61.1556C276.898 61.1556 276.633 61.0312 276.414 60.7828C276.196 60.5341 276.087 60.2233 276.087 59.8504V16.0288C276.087 15.6557 276.196 15.3451 276.414 15.0965C276.633 14.8478 276.898 14.7234 277.21 14.7234H288.062C288.437 14.7234 288.733 14.8476 288.951 15.0965C289.169 15.3451 289.279 15.6557 289.279 16.0288V26.5647C289.279 29.8593 288.904 35.7953 288.156 44.3732H288.343L289.559 40.4572C290.557 36.6034 291.524 33.5264 292.459 31.2267L298.26 15.5626C298.51 15.0034 298.946 14.7236 299.57 14.7236H311.078C311.889 14.7236 312.294 15.1276 312.294 15.9357V59.8506C312.294 60.2237 312.185 60.5343 311.967 60.783C311.748 61.0316 311.452 61.1558 311.078 61.1558H300.225C299.851 61.1558 299.555 61.0314 299.336 60.783C299.118 60.5343 299.009 60.2235 299.009 59.8506V49.8742C299.009 48.1337 299.134 45.492 299.383 41.949C299.633 38.4059 299.882 35.2669 300.132 32.5321H299.945C298.136 38.4372 296.857 42.4463 296.109 44.5596L290.214 60.3168C290.027 60.8761 289.591 61.1558 288.905 61.1558H277.21L277.21 61.1556ZM321.517 61.1556C321.205 61.1556 320.94 61.0312 320.721 60.7828C320.503 60.5341 320.394 60.2233 320.394 59.8504V16.0288C320.394 15.6557 320.503 15.3451 320.721 15.0965C320.94 14.8478 321.205 14.7234 321.517 14.7234H333.305C333.679 14.7234 333.975 14.8476 334.194 15.0965C334.412 15.3451 334.521 15.6557 334.521 16.0288V31.3198H336.953L344.157 15.4693C344.407 14.972 344.843 14.7234 345.467 14.7234H358.378C359.002 14.7234 359.314 14.972 359.314 15.4693L359.127 16.2152L349.022 36.4479L360.156 59.6642C360.28 60.037 360.343 60.2548 360.343 60.3168C360.343 60.5654 360.249 60.7674 360.062 60.9229C359.875 61.0783 359.625 61.156 359.314 61.156H345.841C345.217 61.156 344.718 60.8454 344.344 60.2237L336.766 42.8814H334.52V59.8506C334.52 60.2237 334.411 60.5343 334.193 60.783C333.975 61.0316 333.679 61.1558 333.304 61.1558H321.516L321.517 61.1556ZM399.037 60.0368C399.037 60.7828 398.694 61.1556 398.007 61.1556H387.997C387.311 61.1556 386.874 60.7828 386.687 60.0368C386.562 59.2909 386.375 57.6749 386.125 55.1885C384.067 57.4882 382.056 59.1821 380.091 60.2699C378.126 61.3578 375.896 61.9015 373.401 61.9015C370.158 61.9015 367.648 60.7828 365.87 58.545C364.092 56.3073 363.204 53.1683 363.204 49.128C363.204 44.5283 364.389 41.0629 366.759 38.7321C369.129 36.4012 373.152 34.9249 378.828 34.3032L384.535 33.5573V28.6159C384.535 26.9376 384.301 25.8031 383.833 25.2127C383.366 24.6221 382.477 24.327 381.167 24.327C378.921 24.327 377.799 25.4769 377.799 27.7766C377.799 28.2739 377.83 28.647 377.892 28.8956V29.082C377.892 29.3929 377.768 29.6415 377.518 29.8279C377.269 30.0144 376.988 30.1077 376.676 30.1077H366.291C365.543 30.1077 365.106 29.6415 364.981 28.7092L364.888 27.124C364.888 22.8352 366.322 19.5718 369.191 17.3342C372.06 15.0965 376.239 13.9777 381.728 13.9777C387.654 13.9777 391.957 15.1742 394.639 17.5673C397.321 19.9604 398.662 23.7986 398.662 29.082V49.0349C398.662 53.8833 398.787 57.4573 399.036 59.7573V60.037L399.037 60.0368ZM379.483 51.4589C381.042 51.4589 382.726 50.5266 384.535 48.6619V41.0165L381.728 41.296C379.919 41.5447 378.625 42.1197 377.846 43.0209C377.066 43.9222 376.676 45.2742 376.676 47.0767C376.676 48.5686 376.895 49.672 377.331 50.3868C377.768 51.1016 378.485 51.4591 379.483 51.4591V51.4589ZM189.858 145.069C189.422 145.069 189.094 144.945 188.876 144.696C188.658 144.448 188.549 144.137 188.549 143.764V85.3041C188.549 84.931 188.658 84.6204 188.876 84.3717C189.094 84.1231 189.391 83.9989 189.765 83.9989H207.26C220.67 83.9989 227.375 89.0959 227.375 99.2898C227.375 102.646 226.674 105.397 225.27 107.541C223.867 109.686 221.7 111.38 218.768 112.623V112.996C225.941 114.799 229.527 119.491 229.527 127.075C229.527 133.353 227.781 137.921 224.288 140.781C220.795 143.64 215.182 145.07 207.447 145.07H189.858L189.858 145.069ZM206.98 108.8C211.034 108.8 213.061 106.531 213.061 101.994C213.061 99.8802 212.546 98.3262 211.517 97.3316C210.488 96.3371 208.882 95.8398 206.699 95.8398H203.144V108.8H206.98V108.8ZM207.822 133.228C210.317 133.228 212.156 132.653 213.342 131.503C214.527 130.353 215.119 128.566 215.119 126.142C215.119 121.667 212.624 119.429 207.635 119.429H203.144V133.228H207.822H207.822ZM271.495 143.95C271.495 144.696 271.152 145.069 270.466 145.069H260.455C259.769 145.069 259.333 144.696 259.145 143.95C259.021 143.205 258.834 141.588 258.584 139.102C256.526 141.402 254.514 143.096 252.55 144.184C250.585 145.271 248.355 145.815 245.86 145.815C242.617 145.815 240.106 144.696 238.329 142.459C236.551 140.221 235.662 137.082 235.662 133.042C235.662 128.442 236.847 124.977 239.217 122.646C241.588 120.315 245.611 118.839 251.286 118.217L256.993 117.471V112.529C256.993 110.851 256.76 109.717 256.292 109.126C255.824 108.536 254.935 108.241 253.625 108.241C251.38 108.241 250.257 109.391 250.257 111.69C250.257 112.188 250.288 112.561 250.351 112.809V112.996C250.351 113.307 250.226 113.555 249.977 113.742C249.727 113.928 249.446 114.021 249.135 114.021H238.75C238.001 114.021 237.564 113.555 237.44 112.623L237.346 111.038C237.346 106.749 238.781 103.486 241.65 101.248C244.519 99.0101 248.698 97.8913 254.187 97.8913C260.112 97.8913 264.416 99.0879 267.098 101.481C269.78 103.874 271.121 107.712 271.121 112.996V132.949C271.121 137.797 271.246 141.371 271.495 143.671V143.951L271.495 143.95ZM251.942 135.373C253.501 135.373 255.185 134.44 256.994 132.575V124.93L254.187 125.21C252.378 125.458 251.084 126.033 250.305 126.935C249.525 127.836 249.135 129.188 249.135 130.99C249.135 132.482 249.353 133.586 249.79 134.3C250.226 135.015 250.944 135.373 251.942 135.373V135.373ZM305.043 97.8909C308.536 97.8909 311.125 98.9941 312.809 101.201C314.493 103.407 315.335 106.842 315.335 111.504V129.592C315.335 135.186 314.305 139.289 312.247 141.899C310.189 144.51 307.039 145.815 302.798 145.815C301.363 145.815 299.804 145.644 298.12 145.302C296.436 144.96 294.876 144.51 293.442 143.95V161.013C293.442 161.386 293.333 161.697 293.115 161.945C292.896 162.194 292.6 162.318 292.226 162.318H280.437C280.125 162.318 279.86 162.194 279.642 161.945C279.424 161.697 279.315 161.386 279.315 161.013V110.571C279.315 106.22 279.19 102.708 278.94 100.036V99.7558C278.94 99.0099 279.284 98.637 279.97 98.637H290.074C290.698 98.637 291.103 98.979 291.29 99.6627C291.602 101.714 291.789 103.299 291.852 104.418C293.972 102.304 296.062 100.688 298.12 99.5694C300.178 98.4504 302.486 97.8911 305.043 97.8911L305.043 97.8909ZM301.207 114.208C301.207 112.716 300.989 111.644 300.553 110.991C300.116 110.338 299.336 110.012 298.213 110.012C296.717 110.012 295.126 110.758 293.442 112.25V133.601C294.752 134.16 296.062 134.44 297.372 134.44C298.681 134.44 299.648 133.989 300.272 133.088C300.895 132.187 301.207 130.773 301.207 128.846V114.207V114.208ZM324.09 145.069C323.778 145.069 323.512 144.945 323.294 144.696C323.076 144.448 322.967 144.137 322.967 143.764V99.942C322.967 99.5692 323.076 99.2583 323.294 99.0097C323.512 98.761 323.778 98.6366 324.09 98.6366H334.942C335.317 98.6366 335.613 98.761 335.831 99.0097C336.049 99.2583 336.158 99.5692 336.158 99.942V110.478C336.158 113.772 335.784 119.708 335.036 128.286H335.223L336.439 124.37C337.437 120.517 338.404 117.44 339.339 115.14L345.14 99.4759C345.39 98.9166 345.826 98.6366 346.45 98.6366H357.958C358.769 98.6366 359.174 99.0406 359.174 99.8487V143.764C359.174 144.136 359.065 144.447 358.846 144.696C358.628 144.945 358.332 145.069 357.958 145.069H347.105C346.731 145.069 346.435 144.945 346.216 144.696C345.998 144.447 345.889 144.136 345.889 143.764V133.787C345.889 132.047 346.014 129.405 346.263 125.862C346.513 122.319 346.762 119.18 347.012 116.445H346.825C345.016 122.35 343.737 126.359 342.989 128.473L337.094 144.23C336.907 144.789 336.471 145.069 335.785 145.069H324.09L324.09 145.069ZM368.397 145.069C368.085 145.069 367.819 144.945 367.601 144.696C367.383 144.448 367.274 144.137 367.274 143.764V99.942C367.274 99.5692 367.383 99.2583 367.601 99.0097C367.819 98.761 368.085 98.6366 368.397 98.6366H380.185C380.559 98.6366 380.855 98.761 381.073 99.0097C381.292 99.2583 381.401 99.5692 381.401 99.942V115.233H383.834L391.037 99.3827C391.287 98.8855 391.724 98.6368 392.347 98.6368H405.258C405.882 98.6368 406.194 98.8855 406.194 99.3827L406.007 100.129L395.902 120.361L407.036 143.578C407.161 143.951 407.223 144.168 407.223 144.23C407.223 144.479 407.13 144.681 406.942 144.836C406.755 144.992 406.506 145.069 406.194 145.069H392.721C392.097 145.069 391.599 144.759 391.224 144.137L383.646 126.795H381.401V143.764C381.401 144.137 381.292 144.448 381.073 144.696C380.855 144.945 380.558 145.069 380.184 145.069H368.396L368.397 145.069ZM428.702 145.815C422.776 145.815 418.192 144.292 414.949 141.247C411.706 138.201 410.084 133.819 410.084 128.1V115.513C410.084 109.794 411.705 105.428 414.949 102.413C418.192 99.3985 422.776 97.8911 428.702 97.8911C434.627 97.8911 439.212 99.3985 442.455 102.413C445.699 105.428 447.32 109.794 447.32 115.513V128.1C447.32 133.819 445.699 138.201 442.455 141.247C439.212 144.292 434.627 145.815 428.702 145.815ZM428.702 133.787C430.324 133.787 431.493 133.306 432.21 132.342C432.928 131.379 433.286 129.778 433.286 127.541V116.166C433.286 113.928 432.928 112.327 432.21 111.364C431.493 110.4 430.324 109.919 428.702 109.919C427.08 109.919 425.911 110.4 425.193 111.364C424.476 112.327 424.117 113.928 424.117 116.166V127.541C424.117 129.778 424.476 131.379 425.193 132.342C425.911 133.306 427.08 133.787 428.702 133.787ZM470.763 145.815C464.776 145.815 460.363 144.836 457.525 142.878C454.687 140.92 453.268 137.89 453.268 133.788C453.268 132.917 453.299 132.234 453.362 131.736C453.424 130.742 453.829 130.245 454.578 130.245H464.963C465.337 130.245 465.633 130.353 465.852 130.571C466.07 130.788 466.148 131.084 466.086 131.457C465.898 133.943 467.489 135.186 470.857 135.186C472.604 135.186 473.882 134.829 474.693 134.114C475.504 133.399 475.909 132.296 475.909 130.804C475.909 129.312 475.566 128.24 474.88 127.587C474.194 126.934 473.102 126.608 471.605 126.608H467.208C466.46 126.608 466.085 126.173 466.085 125.303V118.776C466.085 117.906 466.46 117.471 467.208 117.471H470.483C472.042 117.471 473.149 117.082 473.804 116.305C474.459 115.528 474.786 114.3 474.786 112.622C474.786 111.255 474.474 110.245 473.851 109.592C473.227 108.939 472.135 108.613 470.576 108.613C467.707 108.613 466.366 109.98 466.553 112.716C466.553 113.586 466.179 114.021 465.43 114.021H455.045C454.297 114.021 453.891 113.555 453.829 112.622C453.767 112.25 453.736 111.659 453.736 110.851C453.736 106.624 455.186 103.407 458.086 101.201C460.986 98.9941 465.306 97.8909 471.044 97.8909C476.969 97.8909 481.367 98.9477 484.236 101.061C487.105 103.174 488.539 106.376 488.539 110.665C488.539 113.213 487.962 115.358 486.809 117.098C485.655 118.839 484.018 120.144 481.897 121.014V121.294C484.329 121.916 486.247 123.097 487.65 124.837C489.054 126.577 489.755 128.722 489.755 131.27C489.755 136.181 488.18 139.833 485.031 142.226C481.881 144.619 477.125 145.816 470.763 145.816L470.763 145.815Z" fill="#009B97"/>
<path d="M50.1475 132.203C50.9584 132.203 51.3638 132.607 51.3638 133.415V157.004C51.3638 157.377 51.2389 157.688 50.9897 157.936C50.7402 158.185 50.4595 158.309 50.1475 158.309H38.4527C38.1408 158.309 37.8601 158.185 37.6106 157.936C37.3611 157.688 37.2363 157.377 37.2363 157.004V145.069H14.1273V157.004C14.1273 157.377 14.0025 157.688 13.753 157.936C13.5035 158.185 13.2228 158.309 12.9111 158.309H1.21626C0.904339 158.309 0.623632 158.185 0.374138 157.936C0.124643 157.688 0 157.377 0 157.004V133.415C0 132.607 0.40535 132.203 1.21626 132.203H4.67797C5.48888 130.835 5.98786 128.162 6.17493 124.184L8.32675 85.211C8.32675 84.4029 8.7321 83.9989 9.543 83.9989H44.6274C45.0016 83.9989 45.2979 84.1233 45.5162 84.3718C45.7345 84.6204 45.8437 84.9312 45.8437 85.3041V132.203H50.1473H50.1475ZM20.3959 123.531C20.2088 126.95 19.6474 129.841 18.7119 132.203H31.2486V96.6791H21.8929L20.3959 123.531ZM76.117 145.815C70.1916 145.815 65.6072 144.292 62.3638 141.247C59.1204 138.201 57.4988 133.819 57.4988 128.1V115.513C57.4988 109.795 59.1204 105.428 62.3638 102.413C65.6072 99.3987 70.1916 97.8914 76.117 97.8914C82.0424 97.8914 86.6268 99.3987 89.87 102.413C93.1134 105.428 94.7352 109.795 94.7352 115.513V128.1C94.7352 133.819 93.1134 138.201 89.87 141.247C86.6268 144.293 82.0422 145.815 76.117 145.815ZM76.117 133.788C77.7386 133.788 78.9081 133.306 79.6255 132.342C80.3428 131.379 80.7015 129.779 80.7015 127.541V116.166C80.7015 113.928 80.3428 112.328 79.6255 111.364C78.9083 110.401 77.7388 109.919 76.117 109.919C74.4954 109.919 73.326 110.401 72.6085 111.364C71.8912 112.328 71.5327 113.928 71.5327 116.166V127.541C71.5327 129.779 71.8912 131.379 72.6085 132.342C73.3258 133.306 74.4952 133.788 76.117 133.788ZM103.303 145.069C102.991 145.069 102.726 144.945 102.507 144.696C102.289 144.448 102.18 144.137 102.18 143.764V99.9423C102.18 99.5694 102.289 99.2586 102.507 99.0099C102.726 98.7613 102.991 98.6369 103.303 98.6369H115.091C115.465 98.6369 115.762 98.7613 115.98 99.0099C116.198 99.2586 116.307 99.5694 116.307 99.9423V115.233H118.74L125.944 99.383C126.193 98.8857 126.63 98.6371 127.254 98.6371H140.165C140.788 98.6371 141.1 98.8857 141.1 99.383L140.913 100.129L130.809 120.362L141.942 143.578C142.067 143.951 142.129 144.168 142.129 144.23C142.129 144.479 142.036 144.681 141.849 144.837C141.662 144.992 141.412 145.07 141.1 145.07H127.628C127.004 145.07 126.505 144.759 126.131 144.137L118.552 126.795H116.307V143.764C116.307 144.137 116.198 144.448 115.98 144.697C115.761 144.945 115.465 145.07 115.091 145.07H103.303L103.303 145.069ZM156.217 145.815C153.411 145.815 151.196 145.132 149.574 143.764C147.953 142.397 147.142 140.47 147.142 137.983V135.746C147.142 133.259 147.953 131.332 149.574 129.965C151.196 128.598 153.41 127.914 156.217 127.914C159.149 127.914 161.394 128.582 162.953 129.918C164.513 131.255 165.292 133.197 165.292 135.746V137.984C165.292 140.47 164.512 142.397 162.953 143.764C161.394 145.132 159.149 145.816 156.217 145.816V145.815Z" fill="#C91100"/>
<path d="M6.43189 192.708C6.22339 192.708 6.11914 192.591 6.11914 192.357V174.087C6.11914 173.853 6.22339 173.736 6.43189 173.736H8.54271C8.75121 173.736 8.85546 173.853 8.85546 174.087V182.657C8.85546 183.566 8.82945 184.611 8.77722 185.793C8.7252 186.975 8.65986 188.02 8.58183 188.929H8.62095L9.16822 187.449C9.58522 186.254 9.91087 185.371 10.1454 184.8L14.836 174.009C14.9403 173.827 15.0706 173.736 15.227 173.736H17.6897C17.8982 173.736 18.0025 173.853 18.0025 174.087V192.357C18.0025 192.591 17.8982 192.708 17.6897 192.708H15.5789C15.3704 192.708 15.2662 192.591 15.2662 192.357V183.631C15.2662 182.151 15.3704 180.125 15.5789 177.554H15.5398C14.8623 179.528 14.367 180.891 14.0543 181.644L9.24625 192.474C9.22024 192.63 9.11599 192.708 8.9335 192.708H6.43168H6.43189ZM34.7053 173.736C34.9138 173.736 35.018 173.853 35.018 174.087V192.357C35.018 192.591 34.9138 192.708 34.7053 192.708H32.5162C32.3077 192.708 32.2035 192.591 32.2035 192.357V184.254H25.9491V192.357C25.9491 192.591 25.8448 192.708 25.6363 192.708H23.4472C23.2387 192.708 23.1345 192.591 23.1345 192.357V174.087C23.1345 173.853 23.2387 173.736 23.4472 173.736H25.6363C25.8448 173.736 25.9491 173.853 25.9491 174.087V181.683H32.2035V174.087C32.2035 173.853 32.3077 173.736 32.5162 173.736H34.7053ZM51.7208 173.736C51.9293 173.736 52.0336 173.853 52.0336 174.087V192.357C52.0336 192.591 51.9293 192.708 51.7208 192.708H49.5318C49.3233 192.708 49.219 192.591 49.219 192.357V184.254H42.9646V192.357C42.9646 192.591 42.8604 192.708 42.6519 192.708H40.4628C40.2543 192.708 40.15 192.591 40.15 192.357V174.087C40.15 173.853 40.2543 173.736 40.4628 173.736H42.6519C42.8604 173.736 42.9646 173.853 42.9646 174.087V181.683H49.219V174.087C49.219 173.853 49.3233 173.736 49.5318 173.736H51.7208ZM63.0292 193.019C58.8596 193.019 56.7748 190.747 56.7748 186.202V180.281C56.7748 177.969 57.2959 176.249 58.3384 175.119C59.3807 173.989 60.9442 173.424 63.0292 173.424C65.1141 173.424 66.6776 173.989 67.7201 175.119C68.7624 176.249 69.2837 177.969 69.2837 180.281V186.202C69.2837 188.487 68.7624 190.195 67.7201 191.325C66.6776 192.455 65.1141 193.019 63.0292 193.019ZM63.0292 190.409C64.228 190.409 65.1009 190.065 65.6482 189.377C66.1955 188.689 66.4691 187.579 66.4691 186.046V180.437C66.4691 178.904 66.1955 177.788 65.6482 177.087C65.1009 176.385 64.228 176.035 63.0292 176.035C61.8305 176.035 60.9573 176.385 60.4103 177.087C59.863 177.788 59.5894 178.905 59.5894 180.437V186.046C59.5894 187.553 59.863 188.656 60.4103 189.358C60.9575 190.059 61.8305 190.409 63.0292 190.409ZM74.3376 192.708C74.1291 192.708 74.0249 192.591 74.0249 192.357V174.087C74.0249 173.853 74.1291 173.736 74.3376 173.736H79.1457C82.8723 173.736 84.7355 175.281 84.7355 178.372C84.7355 179.437 84.5336 180.333 84.1295 181.06C83.7256 181.787 83.1197 182.319 82.3119 182.657V182.696C83.2499 182.956 83.9993 183.475 84.5596 184.254C85.12 185.033 85.4001 185.981 85.4001 187.098C85.4001 189.046 84.9506 190.468 84.0515 191.364C83.1524 192.26 81.6735 192.708 79.6147 192.708H74.3376ZM79.4193 181.722C80.3053 181.722 80.9504 181.482 81.3543 181.002C81.7582 180.521 81.9602 179.8 81.9602 178.84C81.9602 177.982 81.7453 177.346 81.3154 176.931C80.8853 176.515 80.2144 176.307 79.3021 176.307H76.8395V181.722H79.4193ZM79.5756 190.137C80.6441 190.137 81.4128 189.89 81.8818 189.397C82.3508 188.903 82.5855 188.124 82.5855 187.059C82.5855 185.086 81.5952 184.099 79.6147 184.099H76.8395V190.137H79.5758L79.5756 190.137ZM100.07 192.396C100.07 192.604 99.9788 192.708 99.7965 192.708H97.8419C97.6854 192.708 97.5683 192.565 97.4901 192.279L97.2947 190.215C96.3826 191.227 95.5553 191.948 94.8126 192.377C94.07 192.805 93.2686 193.02 92.4086 193.02C91.2098 193.02 90.2847 192.578 89.6332 191.695C88.9817 190.812 88.656 189.54 88.656 187.877C88.656 185.982 89.1315 184.534 90.0826 183.534C91.0338 182.534 92.604 181.917 94.7931 181.683L97.0993 181.45V179.151C97.0993 177.983 96.9168 177.171 96.552 176.717C96.1872 176.262 95.5226 176.035 94.5583 176.035C93.6723 176.035 93.0272 176.236 92.6234 176.639C92.2195 177.041 92.0305 177.671 92.0565 178.528C92.0565 178.788 91.9523 178.918 91.7438 178.918H89.7112C89.4505 178.918 89.3073 178.723 89.2811 178.334C89.1508 176.801 89.5547 175.6 90.493 174.73C91.4312 173.86 92.8123 173.425 94.6366 173.425C96.4869 173.425 97.8288 173.867 98.6628 174.75C99.4968 175.633 99.9136 177.074 99.9136 179.074V188.034C99.9136 189.774 99.9657 191.189 100.07 192.28V192.397V192.396ZM93.1902 190.41C93.7635 190.41 94.3498 190.221 94.9491 189.845C95.5484 189.468 96.2653 188.812 97.0991 187.877V183.709L94.9491 183.943C93.6983 184.073 92.8056 184.43 92.2715 185.014C91.7371 185.599 91.4701 186.488 91.4701 187.683C91.4701 188.566 91.6135 189.241 91.9001 189.708C92.1868 190.176 92.6167 190.41 93.19 190.41H93.1902ZM118.414 190.137C118.623 190.137 118.727 190.254 118.727 190.488V197.11C118.727 197.37 118.623 197.5 118.414 197.5H116.421C116.213 197.5 116.108 197.37 116.108 197.11V192.708H105.359C105.124 192.708 105.007 192.591 105.007 192.357V174.087C105.007 173.853 105.111 173.736 105.319 173.736H107.509C107.717 173.736 107.821 173.853 107.821 174.087V190.137H113.88V174.087C113.88 173.983 113.913 173.899 113.978 173.834C114.043 173.769 114.128 173.736 114.232 173.736H116.382C116.591 173.736 116.695 173.853 116.695 174.087V190.137H118.415L118.414 190.137ZM122.374 192.708C122.165 192.708 122.061 192.591 122.061 192.357V174.087C122.061 173.853 122.165 173.737 122.374 173.737H124.485C124.693 173.737 124.798 173.853 124.798 174.087V182.657C124.798 183.566 124.772 184.612 124.719 185.793C124.667 186.975 124.602 188.02 124.524 188.929H124.563L125.11 187.449C125.527 186.254 125.853 185.371 126.088 184.8L130.779 174.009C130.883 173.827 131.013 173.737 131.17 173.737H133.632C133.841 173.737 133.945 173.853 133.945 174.087V192.357C133.945 192.591 133.841 192.708 133.632 192.708H131.521C131.313 192.708 131.209 192.591 131.209 192.357V183.631C131.209 182.151 131.313 180.125 131.521 177.554H131.482C130.805 179.528 130.309 180.891 129.997 181.645L125.189 192.474C125.163 192.63 125.058 192.708 124.876 192.708H122.374H122.374ZM144.94 193.02C140.771 193.02 138.686 190.747 138.686 186.202V180.281C138.686 177.97 139.207 176.249 140.249 175.119C141.292 173.99 142.855 173.425 144.94 173.425C147.025 173.425 148.589 173.99 149.631 175.119C150.673 176.249 151.195 177.97 151.195 180.281V186.202C151.195 188.488 150.673 190.195 149.631 191.325C148.589 192.455 147.025 193.02 144.94 193.02ZM144.94 190.41C146.139 190.41 147.012 190.066 147.559 189.378C148.106 188.689 148.38 187.579 148.38 186.047V180.437C148.38 178.905 148.106 177.788 147.559 177.087C147.012 176.386 146.139 176.035 144.94 176.035C143.741 176.035 142.868 176.386 142.321 177.087C141.774 177.788 141.5 178.905 141.5 180.437V186.047C141.5 187.553 141.774 188.657 142.321 189.358C142.868 190.059 143.741 190.41 144.94 190.41ZM167.506 173.737C167.715 173.737 167.819 173.854 167.819 174.087V192.358C167.819 192.591 167.715 192.708 167.506 192.708H165.317C165.109 192.708 165.005 192.591 165.005 192.358V184.255H158.75V192.358C158.75 192.591 158.646 192.708 158.437 192.708H156.248C156.04 192.708 155.936 192.591 155.936 192.358V174.087C155.936 173.854 156.04 173.737 156.248 173.737H158.437C158.646 173.737 158.75 173.854 158.75 174.087V181.684H165.005V174.087C165.005 173.854 165.109 173.737 165.317 173.737H167.506ZM184.522 173.737C184.73 173.737 184.835 173.854 184.835 174.087V192.358C184.835 192.591 184.73 192.708 184.522 192.708H182.333C182.124 192.708 182.02 192.591 182.02 192.358V184.255H175.766V192.358C175.766 192.591 175.662 192.708 175.453 192.708H173.264C173.056 192.708 172.951 192.591 172.951 192.358V174.087C172.951 173.854 173.056 173.737 173.264 173.737H175.453C175.662 173.737 175.766 173.854 175.766 174.087V181.684H182.02V174.087C182.02 173.854 182.124 173.737 182.333 173.737H184.522ZM190.279 192.708C190.071 192.708 189.967 192.591 189.967 192.357V174.087C189.967 173.853 190.071 173.737 190.279 173.737H192.469C192.677 173.737 192.781 173.853 192.781 174.087V180.086H194.853C196.86 180.086 198.378 180.606 199.407 181.644C200.436 182.683 200.951 184.137 200.951 186.008C200.951 188.189 200.423 189.851 199.368 190.994C198.312 192.137 196.768 192.708 194.736 192.708H190.279L190.279 192.708ZM194.814 190.098C195.987 190.098 196.834 189.767 197.355 189.105C197.876 188.443 198.137 187.436 198.137 186.086C198.137 183.826 197.003 182.697 194.736 182.697H192.781V190.098H194.814V190.098ZM204.586 192.708C204.378 192.708 204.274 192.591 204.274 192.357V174.087C204.274 173.853 204.378 173.737 204.586 173.737H206.775C206.984 173.737 207.088 173.853 207.088 174.087V192.357C207.088 192.591 206.984 192.708 206.775 192.708H204.586ZM212.494 192.708C212.285 192.708 212.181 192.591 212.181 192.357V174.087C212.181 173.853 212.285 173.737 212.494 173.737H214.605C214.813 173.737 214.917 173.853 214.917 174.087V182.657C214.917 183.566 214.891 184.612 214.839 185.793C214.787 186.975 214.722 188.02 214.644 188.929H214.683L215.23 187.449C215.647 186.254 215.973 185.371 216.207 184.8L220.898 174.009C221.002 173.827 221.133 173.737 221.289 173.737H223.752C223.96 173.737 224.065 173.853 224.065 174.087V192.357C224.065 192.591 223.96 192.708 223.752 192.708H221.641C221.433 192.708 221.328 192.591 221.328 192.357V183.631C221.328 182.151 221.433 180.125 221.641 177.554H221.602C220.924 179.528 220.429 180.891 220.117 181.645L215.309 192.474C215.283 192.63 215.178 192.708 214.996 192.708H212.494H212.494ZM218.123 171.282C217.367 171.282 216.715 171.153 216.168 170.893C215.621 170.633 215.087 170.309 214.566 169.919C214.461 169.763 214.409 169.608 214.409 169.452V167.738C214.409 167.608 214.442 167.523 214.507 167.484C214.572 167.445 214.657 167.465 214.761 167.543C215.908 168.452 217.028 168.906 218.123 168.906C219.218 168.906 220.338 168.452 221.485 167.543L221.641 167.465C221.771 167.465 221.836 167.556 221.836 167.738V169.452C221.836 169.66 221.784 169.816 221.68 169.919C221.159 170.309 220.631 170.634 220.097 170.893C219.563 171.153 218.905 171.283 218.123 171.283L218.123 171.282ZM241.275 193.02C237.106 193.02 235.021 190.734 235.021 186.164V180.32C235.021 178.035 235.549 176.314 236.604 175.159C237.659 174.003 239.217 173.425 241.275 173.425C243.152 173.425 244.598 173.919 245.614 174.905C246.63 175.892 247.1 177.256 247.021 178.996C247.021 179.411 246.904 179.619 246.67 179.619H244.598C244.389 179.619 244.285 179.463 244.285 179.152C244.337 178.191 244.096 177.431 243.562 176.873C243.028 176.314 242.266 176.035 241.275 176.035C240.102 176.035 239.236 176.386 238.676 177.087C238.115 177.788 237.835 178.918 237.835 180.476V186.008C237.835 187.54 238.115 188.657 238.676 189.358C239.236 190.059 240.103 190.41 241.275 190.41C242.239 190.41 242.976 190.156 243.484 189.65C243.992 189.144 244.246 188.41 244.246 187.449C244.246 187.215 244.266 187.053 244.305 186.962C244.344 186.871 244.429 186.826 244.559 186.826H246.67C246.878 186.826 246.982 186.956 246.982 187.215C246.982 189.085 246.5 190.52 245.536 191.52C244.572 192.52 243.152 193.02 241.275 193.02ZM257.392 193.02C253.222 193.02 251.137 190.747 251.137 186.202V180.281C251.137 177.97 251.659 176.249 252.701 175.119C253.743 173.99 255.307 173.425 257.392 173.425C259.477 173.425 261.04 173.99 262.082 175.119C263.125 176.249 263.646 177.97 263.646 180.281V186.202C263.646 188.488 263.125 190.195 262.082 191.325C261.04 192.455 259.477 193.02 257.392 193.02ZM257.392 190.41C258.591 190.41 259.464 190.066 260.011 189.378C260.558 188.689 260.832 187.579 260.832 186.047V180.437C260.832 178.905 260.558 177.788 260.011 177.087C259.464 176.386 258.591 176.035 257.392 176.035C256.193 176.035 255.32 176.386 254.773 177.087C254.226 177.788 253.952 178.905 253.952 180.437V186.047C253.952 187.553 254.226 188.657 254.773 189.358C255.32 190.059 256.193 190.41 257.392 190.41ZM274.251 193.02C270.081 193.02 267.996 190.734 267.996 186.164V180.32C267.996 178.035 268.524 176.314 269.58 175.159C270.635 174.003 272.192 173.425 274.251 173.425C276.127 173.425 277.573 173.919 278.59 174.905C279.606 175.892 280.075 177.256 279.997 178.996C279.997 179.411 279.88 179.619 279.645 179.619H277.573C277.365 179.619 277.261 179.463 277.261 179.152C277.313 178.191 277.072 177.431 276.538 176.873C276.003 176.314 275.241 176.035 274.251 176.035C273.078 176.035 272.211 176.386 271.651 177.087C271.091 177.788 270.811 178.918 270.811 180.476V186.008C270.811 187.54 271.091 188.657 271.651 189.358C272.212 190.059 273.078 190.41 274.251 190.41C275.215 190.41 275.951 190.156 276.459 189.65C276.967 189.144 277.222 188.41 277.222 187.449C277.222 187.215 277.241 187.053 277.28 186.962C277.319 186.871 277.404 186.826 277.534 186.826H279.645C279.854 186.826 279.958 186.956 279.958 187.215C279.958 189.085 279.476 190.52 278.512 191.52C277.547 192.52 276.127 193.02 274.251 193.02ZM286.419 199.915C286.315 199.915 286.243 199.87 286.204 199.778C286.165 199.688 286.172 199.59 286.224 199.486L288.296 192.474L282.823 174.165L282.784 174.009C282.784 173.827 282.875 173.737 283.057 173.737H285.442C285.598 173.737 285.716 173.84 285.794 174.048L288.335 183.32C288.673 184.566 288.986 185.878 289.273 187.254L289.586 188.54H289.664C290.003 187.111 290.433 185.371 290.954 183.32L293.417 174.048C293.495 173.84 293.625 173.737 293.808 173.737H296.114C296.218 173.737 296.29 173.782 296.329 173.873C296.368 173.964 296.374 174.061 296.348 174.165L288.96 199.642C288.934 199.824 288.817 199.915 288.609 199.915H286.42H286.419ZM311.253 190.137C311.487 190.137 311.605 190.254 311.605 190.488V197.11C311.605 197.214 311.572 197.305 311.507 197.383C311.442 197.461 311.357 197.5 311.253 197.5H309.298C309.194 197.5 309.109 197.461 309.044 197.383C308.979 197.305 308.946 197.214 308.946 197.11V192.708H299.096V197.11C299.096 197.37 298.992 197.5 298.783 197.5H296.79C296.581 197.5 296.477 197.37 296.477 197.11V190.488C296.477 190.254 296.594 190.137 296.829 190.137H298.002C298.288 189.955 298.503 189.559 298.647 188.949C298.79 188.338 298.901 187.371 298.979 186.047L299.722 174.126C299.722 173.866 299.826 173.736 300.034 173.736H309.416C309.65 173.736 309.768 173.866 309.768 174.126V190.137H311.253L311.253 190.137ZM301.676 185.969C301.572 187.761 301.259 189.15 300.738 190.137H306.953V176.308H302.262L301.676 185.969L301.676 185.969ZM315.212 192.708C315.004 192.708 314.9 192.591 314.9 192.357V174.087C314.9 173.853 315.004 173.737 315.212 173.737H317.323C317.532 173.737 317.636 173.853 317.636 174.087V182.657C317.636 183.566 317.61 184.612 317.558 185.793C317.506 186.975 317.44 188.02 317.362 188.929H317.401L317.949 187.449C318.366 186.254 318.691 185.371 318.926 184.8L323.617 174.009C323.721 173.827 323.851 173.737 324.008 173.737H326.47C326.679 173.737 326.783 173.853 326.783 174.087V192.357C326.783 192.591 326.679 192.708 326.47 192.708H324.36C324.151 192.708 324.047 192.591 324.047 192.357V183.631C324.047 182.151 324.151 180.125 324.36 177.554H324.32C323.643 179.528 323.148 180.891 322.835 181.645L318.027 192.474C318.001 192.63 317.897 192.708 317.714 192.708H315.212ZM337.779 193.02C333.609 193.02 331.524 190.734 331.524 186.164V180.32C331.524 178.035 332.052 176.314 333.107 175.159C334.163 174.003 335.72 173.425 337.778 173.425C339.655 173.425 341.101 173.919 342.117 174.905C343.134 175.892 343.603 177.256 343.525 178.996C343.525 179.411 343.407 179.619 343.173 179.619H341.101C340.893 179.619 340.788 179.463 340.788 179.152C340.84 178.191 340.599 177.431 340.065 176.873C339.531 176.314 338.769 176.035 337.778 176.035C336.606 176.035 335.739 176.386 335.179 177.087C334.619 177.788 334.338 178.918 334.338 180.476V186.008C334.338 187.54 334.619 188.657 335.179 189.358C335.739 190.059 336.606 190.41 337.778 190.41C338.743 190.41 339.479 190.156 339.987 189.65C340.495 189.144 340.749 188.41 340.749 187.449C340.749 187.215 340.769 187.053 340.808 186.962C340.847 186.871 340.932 186.826 341.062 186.826H343.173C343.381 186.826 343.485 186.956 343.485 187.215C343.485 189.085 343.003 190.52 342.039 191.52C341.075 192.52 339.655 193.02 337.779 193.02ZM351.471 192.708C351.263 192.708 351.159 192.591 351.159 192.357V176.308H346.937C346.728 176.308 346.624 176.191 346.624 175.957V174.087C346.624 173.853 346.728 173.737 346.937 173.737H358.195C358.403 173.737 358.507 173.853 358.507 174.087V175.957C358.507 176.191 358.403 176.308 358.195 176.308H353.973V192.357C353.973 192.591 353.869 192.708 353.66 192.708H351.471H351.471ZM362.35 192.708C362.141 192.708 362.037 192.591 362.037 192.357V174.087C362.037 173.853 362.141 173.737 362.35 173.737H364.539C364.747 173.737 364.852 173.853 364.852 174.087V180.086H366.923C368.93 180.086 370.448 180.606 371.477 181.644C372.507 182.683 373.021 184.137 373.021 186.008C373.021 188.189 372.494 189.851 371.438 190.994C370.383 192.137 368.839 192.708 366.806 192.708H362.35V192.708ZM366.884 190.098C368.057 190.098 368.904 189.767 369.425 189.105C369.946 188.443 370.207 187.436 370.207 186.086C370.207 183.826 369.073 182.697 366.806 182.697H364.852V190.098H366.884V190.098ZM376.657 192.708C376.448 192.708 376.344 192.591 376.344 192.357V174.087C376.344 173.853 376.448 173.737 376.657 173.737H378.846C379.054 173.737 379.159 173.853 379.159 174.087V192.357C379.159 192.591 379.054 192.708 378.846 192.708H376.657ZM384.564 192.708C384.356 192.708 384.251 192.591 384.251 192.357V174.087C384.251 173.853 384.356 173.737 384.564 173.737H386.675C386.884 173.737 386.988 173.853 386.988 174.087V182.657C386.988 183.566 386.962 184.612 386.91 185.793C386.858 186.975 386.792 188.02 386.714 188.929H386.753L387.301 187.449C387.718 186.254 388.043 185.371 388.278 184.8L392.969 174.009C393.073 173.827 393.203 173.737 393.36 173.737H395.822C396.031 173.737 396.135 173.853 396.135 174.087V192.357C396.135 192.591 396.031 192.708 395.822 192.708H393.711C393.503 192.708 393.399 192.591 393.399 192.357V183.631C393.399 182.151 393.503 180.125 393.711 177.554H393.672C392.995 179.528 392.5 180.891 392.187 181.645L387.379 192.474C387.353 192.63 387.249 192.708 387.066 192.708H384.564ZM390.193 171.282C389.437 171.282 388.786 171.153 388.239 170.893C387.691 170.633 387.157 170.309 386.636 169.919C386.532 169.763 386.48 169.608 386.48 169.452V167.738C386.48 167.608 386.512 167.523 386.577 167.484C386.643 167.445 386.727 167.465 386.832 167.543C387.978 168.452 389.099 168.906 390.193 168.906C391.288 168.906 392.408 168.452 393.555 167.543L393.711 167.465C393.842 167.465 393.907 167.556 393.907 167.738V169.452C393.907 169.66 393.855 169.816 393.75 169.919C393.229 170.309 392.701 170.634 392.167 170.893C391.633 171.153 390.975 171.283 390.193 171.283V171.282ZM420.89 190.137C421.099 190.137 421.203 190.254 421.203 190.488V197.11C421.203 197.37 421.099 197.5 420.89 197.5H418.897C418.688 197.5 418.584 197.37 418.584 197.11V192.708H407.834C407.6 192.708 407.482 192.591 407.482 192.357V174.087C407.482 173.853 407.587 173.737 407.795 173.737H409.984C410.193 173.737 410.297 173.853 410.297 174.087V190.137H416.356V174.087C416.356 173.983 416.388 173.899 416.454 173.834C416.519 173.769 416.603 173.737 416.708 173.737H418.858C419.066 173.737 419.17 173.853 419.17 174.087V190.137H420.89V190.137ZM430.205 193.02C426.087 193.02 424.029 190.747 424.029 186.202V180.164C424.029 175.671 426.048 173.425 430.087 173.425C432.068 173.425 433.566 173.983 434.583 175.1C435.599 176.217 436.107 177.866 436.107 180.047V183.553C436.107 183.657 436.081 183.742 436.029 183.806C435.977 183.871 435.912 183.904 435.834 183.904H426.843V185.852C426.843 187.462 427.11 188.624 427.644 189.338C428.178 190.053 429.058 190.41 430.283 190.41C431.247 190.41 431.964 190.195 432.433 189.767C432.902 189.338 433.123 188.721 433.097 187.916C433.097 187.812 433.13 187.715 433.195 187.624C433.26 187.533 433.332 187.488 433.41 187.488H435.56C435.716 187.488 435.82 187.605 435.872 187.838C435.924 189.475 435.449 190.747 434.446 191.656C433.442 192.565 432.029 193.02 430.204 193.02L430.205 193.02ZM433.293 181.372V180.203C433.293 178.749 433.039 177.691 432.531 177.029C432.023 176.366 431.221 176.035 430.127 176.035C429.006 176.035 428.179 176.373 427.645 177.048C427.11 177.723 426.843 178.775 426.843 180.203V181.372H433.293V181.372ZM452.341 173.737C452.55 173.737 452.654 173.854 452.654 174.087V192.358C452.654 192.591 452.55 192.708 452.341 192.708H450.152C449.944 192.708 449.839 192.591 449.839 192.358V184.255H443.585V192.358C443.585 192.591 443.481 192.708 443.272 192.708H441.083C440.875 192.708 440.77 192.591 440.77 192.358V174.087C440.77 173.854 440.875 173.737 441.083 173.737H443.272C443.481 173.737 443.585 173.854 443.585 174.087V181.684H449.839V174.087C449.839 173.854 449.944 173.737 450.152 173.737H452.341ZM461.07 192.708C460.861 192.708 460.757 192.591 460.757 192.357V176.308H456.535C456.327 176.308 456.223 176.191 456.223 175.957V174.087C456.223 173.853 456.327 173.737 456.535 173.737H467.793C468.002 173.737 468.106 173.853 468.106 174.087V175.957C468.106 176.191 468.002 176.308 467.793 176.308H463.572V192.357C463.572 192.591 463.467 192.708 463.259 192.708H461.07ZM479.375 173.425C480.809 173.425 481.877 173.88 482.581 174.789C483.284 175.697 483.636 177.113 483.636 179.035V186.164C483.636 188.423 483.199 190.131 482.326 191.286C481.453 192.442 480.196 193.02 478.554 193.02C477.851 193.02 477.134 192.929 476.404 192.747C475.675 192.565 475.023 192.332 474.45 192.046V199.564C474.45 199.798 474.346 199.915 474.137 199.915H471.948C471.74 199.915 471.635 199.798 471.635 199.564V178.139C471.635 176.347 471.583 175.022 471.479 174.165V174.048C471.479 173.84 471.57 173.737 471.753 173.737H473.707C473.916 173.737 474.033 173.853 474.059 174.087C474.189 174.762 474.268 175.412 474.294 176.035C475.154 175.152 475.987 174.496 476.795 174.068C477.603 173.639 478.463 173.425 479.375 173.425L479.375 173.425ZM480.822 179.268C480.822 178.126 480.646 177.301 480.294 176.795C479.942 176.288 479.388 176.035 478.633 176.035C477.981 176.035 477.33 176.236 476.678 176.639C476.027 177.041 475.284 177.671 474.45 178.528V189.514C475.57 190.111 476.704 190.41 477.851 190.41C478.867 190.41 479.616 190.053 480.098 189.339C480.58 188.624 480.821 187.501 480.821 185.969V179.269L480.822 179.268Z" fill="#009B97"/>
</svg>
