<svg width="110" height="110" viewBox="0 0 110 110" fill="none" xmlns="http://www.w3.org/2000/svg">
<rect width="110" height="110" rx="10" fill="#0DB0B8"/>
<path d="M72.5468 27.7958H69.0814V27.6807C69.0814 25.3666 67.2278 23.3979 64.7986 23.3979H60.4007C60.0554 20.9687 57.9715 19 55.4272 19C52.8828 19 50.799 20.8536 50.4536 23.3979H45.9405C43.6264 23.3979 41.6692 25.2515 41.6692 27.6807V27.7958H38.2038C35.3141 27.7958 33 30.1099 33 32.9997V84.7962C33 87.6859 35.3141 90 38.2038 90H72.6504C75.5401 90 77.8543 87.6859 77.8543 84.7962V32.9997C77.7391 30.1099 75.425 27.7958 72.5353 27.7958H72.5468ZM44.5705 27.6807C44.5705 26.9899 45.1461 26.2992 45.952 26.2992H51.8466C52.6525 26.2992 53.3548 25.6084 53.3548 24.791V24.1002C53.3548 22.9489 54.2759 21.9012 55.5538 21.9012C56.8317 21.9012 57.7527 22.8223 57.7527 24.1002V24.791C57.7527 25.5969 58.4435 26.2992 59.2609 26.2992H65.1555C65.8463 26.2992 66.5371 26.8748 66.5371 27.6807V30.8007C66.5371 31.4915 65.9614 32.1938 65.1555 32.1938H45.8484C45.1577 32.1938 44.4669 31.6181 44.4669 30.8007V27.6807H44.582H44.5705ZM74.8609 84.681C74.8609 85.9475 73.8248 86.9951 72.5468 86.9951H38.2154C36.949 86.9951 35.9013 85.959 35.9013 84.681V32.9997C35.9013 31.7333 36.9374 30.6856 38.2154 30.6856H41.6808V30.8007C41.6808 33.1148 43.5343 35.0835 45.952 35.0835H64.9138C67.2279 35.0835 69.1965 33.2299 69.1965 30.8007V30.6856H72.6619C73.9283 30.6856 74.976 31.7217 74.976 32.9997V84.681H74.8609Z" fill="white"/>
<path d="M70.5776 48.024C69.7717 48.024 69.0694 48.7148 69.0694 49.5322V74.1583H63.2899C62.484 74.1583 61.7817 74.849 61.7817 75.6664V81.4459H41.6687V39.3663C41.6687 38.5604 40.9779 37.8581 40.1605 37.8581C39.3431 37.8581 38.6523 38.5489 38.6523 39.3663V82.7239C38.6523 83.5298 39.3431 84.232 40.1605 84.232C64.7866 84.232 63.3935 84.232 63.5086 84.232C63.7389 84.232 64.0843 84.0018 64.1995 83.8866C72.0628 76.0233 71.4871 76.599 71.6022 76.4839C71.7174 76.3687 71.8325 76.2536 71.8325 76.0233C71.9476 75.678 71.8325 77.1746 71.9476 49.5437C71.9476 48.6227 71.2568 48.0355 70.5545 48.0355L70.5776 48.024ZM66.9971 76.9214L64.683 79.2354V76.9214H66.9971Z" fill="white"/>
<path d="M70.5785 43.6376C71.4074 43.6376 72.0867 44.3053 72.0867 45.1458C72.0867 45.9862 71.4189 46.6539 70.5785 46.6539C69.7381 46.6539 69.0703 45.9862 69.0703 45.1458C69.0703 44.3053 69.7381 43.6376 70.5785 43.6376Z" fill="white"/>
<path d="M59.0199 71.0383C59.8488 71.0383 60.5281 71.706 60.5281 72.5465C60.5281 73.3869 59.8603 74.0546 59.0199 74.0546C58.1795 74.0546 57.5117 73.3869 57.5117 72.5465C57.5117 71.706 58.1795 71.0383 59.0199 71.0383Z" fill="white"/>
<path d="M44.5702 52.3068H50.3496C50.9252 52.3068 51.3858 51.9614 51.6161 51.5009L52.6522 49.3019L54.6209 58.3165C54.736 59.0073 55.3116 59.4678 56.0139 59.4678C56.5896 59.4678 57.1652 59.1224 57.407 58.4316L59.9514 50.7986H64.6947C65.5006 50.7986 66.2029 50.1078 66.2029 49.2904C66.2029 48.473 65.5121 47.7822 64.6947 47.7822H58.9152C58.3395 47.7822 57.7639 48.1276 57.5222 48.8184L56.2557 52.514L54.6324 44.7658C54.5173 44.1902 54.0567 43.7297 53.366 43.6146C52.7903 43.4994 52.2147 43.8448 51.8693 44.4204L49.4401 49.394H44.5816C43.7757 49.394 43.085 50.0848 43.085 50.9022C43.085 51.593 43.7757 52.2953 44.5816 52.2953L44.5702 52.3068Z" fill="white"/>
<path d="M64.7983 62.4842H45.9517C45.1458 62.4842 44.4551 63.175 44.4551 63.9924C44.4551 64.8098 45.1458 65.5006 45.9517 65.5006H64.7983C65.6042 65.5006 66.3065 64.8098 66.3065 63.9924C66.3065 63.175 65.5006 62.4842 64.7983 62.4842Z" fill="white"/>
<path d="M75.7363 68.2637C75.7363 67.4578 75.0456 66.7555 74.2282 66.7555H55.4967C54.6908 66.7555 54 67.4463 54 68.2637C54 69.0811 54.6908 69.7719 55.4967 69.7719H74.3433C75.034 69.6567 75.7363 68.966 75.7363 68.2637Z" fill="white"/>
<path d="M54.621 71.1534H45.9517C45.1458 71.1534 44.4551 71.8442 44.4551 72.6616C44.4551 73.479 45.1458 74.1698 45.9517 74.1698H54.621C55.4269 74.1698 56.1292 73.479 56.1292 72.6616C56.1292 71.7406 55.4384 71.1534 54.621 71.1534Z" fill="white"/>
<path d="M54.621 75.4247H45.9517C45.1458 75.4247 44.4551 76.1155 44.4551 76.9329C44.4551 77.7503 45.1458 78.4411 45.9517 78.4411H54.621C55.4269 78.4411 56.1292 77.7503 56.1292 76.9329C56.1292 76.1155 55.4384 75.4247 54.621 75.4247Z" fill="white"/>
</svg>
