<svg width="110" height="110" viewBox="0 0 110 110" fill="none" xmlns="http://www.w3.org/2000/svg">
<rect width="110" height="110" rx="10" fill="#0DB0B8"/>
<path d="M54.856 70.0951C55.8483 70.0951 56.6614 70.8944 56.6614 71.9004C56.6614 72.9065 55.862 73.7058 54.856 73.7058C53.85 73.7058 53.0645 72.9065 53.0645 71.9004C53.0645 70.8944 53.8638 70.0951 54.856 70.0951Z" fill="white"/>
<path d="M77.4166 52.7995C78.4088 52.7995 79.2219 53.5988 79.2219 54.6048C79.2219 55.6109 78.4226 56.4102 77.4166 56.4102C76.4105 56.4102 75.625 55.6109 75.625 54.6048C75.625 53.5988 76.4243 52.7995 77.4166 52.7995Z" fill="white"/>
<path d="M87.7922 25.1267H22.0553C21.0907 25.1267 20.25 25.9535 20.25 26.932V66.7875C20.25 67.7522 21.0769 68.5929 22.0553 68.5929H87.7922C88.7569 68.5929 89.5975 67.766 89.5975 66.7875V26.932C89.4597 25.9673 88.6328 25.1267 87.7922 25.1267ZM23.7229 64.9822V40.7684H35.9055C36.8702 40.7684 37.7109 39.9416 37.7109 38.9631C37.7109 37.9846 36.884 37.1578 35.9055 37.1578H23.7229V35.504H27.182C28.1467 35.504 28.9736 34.6771 28.9736 33.6986C28.9736 32.7202 28.1467 31.8933 27.182 31.8933H23.7229V28.572H86.0006V52.7857H82.5415C81.5768 52.7857 80.7362 53.6126 80.7362 54.5911C80.7362 55.5696 81.563 56.2586 82.5415 56.2586H86.0006V58.064H73.8179C72.8532 58.064 72.0126 58.8909 72.0126 59.8693C72.0126 60.8478 72.8394 61.6747 73.8179 61.6747H86.0006V65.1338H23.7229V64.996V64.9822Z" fill="white"/>
<path d="M88.4819 20H21.2292C17.7701 20 15 22.77 15 26.2291V72.7273C15 76.1864 17.7701 78.9564 21.2292 78.9564H44.4782V82.4155H41.8459C39.4893 82.4155 37.56 84.3587 37.56 86.7015C37.56 89.0443 39.5031 90.9875 41.8459 90.9875H67.8651C70.2217 90.9875 72.1511 89.0443 72.1511 86.7015C72.1511 84.3587 70.2079 82.4155 67.8651 82.4155H65.2329V78.9564H88.4819C91.941 78.9564 94.7111 76.1864 94.7111 72.7273V26.0913C94.7111 22.77 91.941 20 88.4819 20ZM68.692 86.5637C68.692 86.9771 68.2785 87.3906 67.8651 87.3906H41.8459C41.4325 87.3906 41.0191 86.9771 41.0191 86.5637C41.0191 86.1502 41.4325 85.7368 41.8459 85.7368H67.8651C68.2785 85.7368 68.692 86.0124 68.692 86.5637ZM61.7737 82.2777H47.9373V78.8186H61.7737V82.2777ZM91.252 72.5894C91.252 74.1054 90.0116 75.3595 88.4819 75.3595H21.2292C19.7132 75.3595 18.4591 74.1192 18.4591 72.5894V26.0913C18.4591 24.5754 19.6995 23.3213 21.2292 23.3213H88.4819C89.9978 23.3213 91.252 24.5616 91.252 26.0913V72.5894Z" fill="white"/>
<path d="M58.8652 43.5247V41.1681C58.8652 38.9493 57.0736 37.1577 54.8548 37.1577C52.636 37.1577 50.8445 38.9631 50.8445 41.1681V43.5247H48.4879C46.2691 43.5247 44.4775 45.33 44.4775 47.535C44.4775 49.74 46.2829 51.5454 48.4879 51.5454H50.8445V53.902C50.8445 56.1208 52.6498 57.9123 54.8548 57.9123C57.0598 57.9123 58.8652 56.107 58.8652 53.902V51.5454H61.2218C63.4406 51.5454 65.2322 49.74 65.2322 47.535C65.2322 45.33 63.4406 43.5247 61.2218 43.5247H58.8652ZM61.7731 47.6728C61.7731 47.9485 61.4974 48.2241 61.2218 48.2241H57.2114C56.2468 48.2241 55.4199 49.051 55.4199 50.0294V54.0398C55.4199 54.3154 55.1442 54.591 54.8686 54.591C54.593 54.591 54.3174 54.3154 54.3174 54.0398V50.0294C54.3174 49.0647 53.4905 48.2241 52.5121 48.2241H48.5017C48.226 48.2241 47.9505 47.9485 47.9505 47.6728C47.9505 47.3972 48.226 47.1216 48.5017 47.1216H52.5121C53.4768 47.1216 54.3174 46.2947 54.3174 45.3162V41.3059C54.3174 41.0302 54.593 40.7546 54.8686 40.7546C55.1442 40.7546 55.4199 41.0302 55.4199 41.3059V45.3162C55.4199 46.2809 56.2468 47.1216 57.2114 47.1216H61.2218C61.4974 46.9838 61.7731 47.2594 61.7731 47.6728Z" fill="white"/>
<path d="M54.8556 32.0448C46.2699 32.0448 39.2139 38.963 39.2139 47.6866C39.2139 56.4102 46.2699 63.1906 54.8556 63.1906C63.4414 63.1906 70.4974 56.2723 70.4974 47.5488C70.4974 38.8252 63.4414 32.0448 54.8556 32.0448ZM54.8556 59.7177C48.213 59.7177 42.673 54.3154 42.673 47.535C42.673 40.7546 48.213 35.4901 54.8556 35.4901C61.4982 35.4901 67.0383 40.8924 67.0383 47.6728C67.0383 54.4532 61.4982 59.7177 54.8556 59.7177Z" fill="white"/>
<path d="M32.4333 32.0448C33.4255 32.0448 34.2386 32.8441 34.2386 33.8502C34.2386 34.8562 33.4393 35.6555 32.4333 35.6555C31.4272 35.6555 30.6279 34.8562 30.6279 33.8502C30.6279 32.8441 31.4272 32.0448 32.4333 32.0448Z" fill="white"/>
</svg>
