<svg width="110" height="110" viewBox="0 0 110 110" fill="none" xmlns="http://www.w3.org/2000/svg">
<rect width="110" height="110" rx="10" fill="#0DB0B8"/>
<path d="M80.3547 70.4319C75.8933 70.4319 72.1496 73.6973 71.42 78.0391H63.5736C62.0067 78.0391 60.6791 76.7114 60.6791 75.1445V74.1757C60.6791 71.2811 58.263 68.865 55.3684 68.865C52.4739 68.865 50.0578 71.2811 50.0578 74.1757V83.9597C50.0578 85.6462 48.7301 86.9739 47.0436 86.9739C45.3571 86.9739 44.0294 85.6462 44.0294 83.9597V71.64C46.6848 70.9104 48.6105 68.6258 48.6105 65.8509V63.5544C58.1433 60.8991 65.272 52.0839 65.272 41.7018C65.272 35.1831 62.4971 29.1429 57.6649 24.801V23.593C57.6649 21.0573 55.6076 19 53.0719 19C50.5362 19 48.6105 21.0573 48.6105 23.593V26.6072C48.6105 29.1429 50.6678 31.1882 53.2035 31.1882C55.0096 31.1882 56.4688 30.0997 57.3061 28.6525C58.7534 30.3389 59.9614 32.157 60.8106 34.2023C60.8106 43.9864 52.8446 55.3253 42.7018 55.3253C32.5589 55.3253 24.5929 43.9744 24.5929 34.2023C25.4422 32.1451 26.6502 30.3389 28.0975 28.6525C28.8271 30.0997 30.394 31.1882 32.2001 31.1882C34.7359 31.1882 36.7811 29.1309 36.7811 26.6072V23.593C36.7811 21.0573 34.7239 19 32.2001 19C29.6764 19 27.6071 21.0573 27.6071 23.593V24.801C22.7749 29.1429 20 35.1831 20 41.7018C20 52.0839 26.9971 60.8991 36.6615 63.5544V65.8509C36.6615 68.6258 38.5992 71.0419 41.2545 71.64V83.9597C41.2545 87.3446 43.9099 90 47.2948 90C50.6798 90 53.3351 87.3446 53.3351 83.9597V74.1757C53.3351 72.9676 54.3039 71.8792 55.6315 71.8792C56.9592 71.8792 57.928 72.848 57.928 74.1757V75.1445C57.928 78.4099 60.5833 81.0652 63.8487 81.0652H71.695C72.4246 85.2874 76.1684 88.6723 80.6299 88.6723C85.5817 88.6723 89.6843 84.5697 89.6843 79.6179C89.6843 74.6661 85.3425 70.4439 80.3906 70.4439L80.3547 70.4319ZM54.6388 26.6072C54.6388 27.4564 53.9091 28.174 53.0719 28.174C52.2346 28.174 51.505 27.4444 51.505 26.6072V23.593C51.505 22.7438 52.2346 22.0261 53.0719 22.0261C53.9091 22.0261 54.6388 22.7557 54.6388 23.593V26.6072ZM30.4897 23.593C30.4897 22.7438 31.2193 22.0261 32.0565 22.0261C32.8938 22.0261 33.6235 22.7557 33.6235 23.593V26.6072C33.6235 27.4564 32.8938 28.174 32.0565 28.174C31.2193 28.174 30.4897 27.4444 30.4897 26.6072V23.593ZM23.0022 42.551C26.0164 50.8758 33.5039 58.3634 42.5583 58.3634C51.6127 58.3634 59.1002 50.8758 62.1143 42.551C61.6359 52.9331 53.0599 61.3895 42.5583 61.3895C32.0566 61.3895 23.361 52.9331 23.0022 42.551ZM39.5441 65.8509V64.1644C41.6014 64.4036 43.5271 64.4036 45.5844 64.1644V65.8509C45.5844 67.5374 44.2567 68.865 42.5702 68.865C40.8837 68.865 39.5561 67.5374 39.5561 65.8509H39.5441ZM80.3547 85.5266C77.5798 85.5266 75.1637 83.5889 74.5657 80.9336H76.1326C76.7306 82.7397 78.429 83.9478 80.3547 83.9478C82.8904 83.9478 84.9477 81.8905 84.9477 79.3548C84.9477 76.8191 82.8904 74.7618 80.3547 74.7618C78.429 74.7618 76.7306 75.9698 76.1326 77.7759H74.5657C75.2953 75.1206 77.5798 73.1829 80.3547 73.1829C83.7397 73.1829 86.395 75.8383 86.395 79.2232C86.395 82.6081 83.62 85.5027 80.3547 85.5027V85.5266ZM78.7878 79.4863C78.7878 78.6371 79.5175 77.9195 80.3547 77.9195C81.192 77.9195 81.9216 78.6491 81.9216 79.4863C81.9216 80.3236 81.192 81.0532 80.3547 81.0532C79.5175 81.0532 78.7878 80.204 78.7878 79.4863Z" fill="white"/>
</svg>
