<svg width="80" height="80" viewBox="0 0 80 80" fill="none" xmlns="http://www.w3.org/2000/svg">
<path fill-rule="evenodd" clip-rule="evenodd" d="M31.5157 31.5143C33.7661 29.264 36.8183 27.9997 40.0008 27.9997C43.1833 27.9997 46.2355 29.264 48.4859 31.5143C50.7363 33.7647 52.0006 36.8169 52.0006 39.9995C52.0006 43.1819 50.7363 46.2341 48.4859 48.4845C46.2355 50.7349 43.1833 51.9992 40.0008 51.9992C36.8183 51.9992 33.7661 50.7349 31.5157 48.4845C29.2654 46.2341 28.0011 43.1819 28.0011 39.9995C28.0011 36.8169 29.2654 33.7647 31.5157 31.5143ZM42.7562 33.3472C41.8833 32.9858 40.9479 32.7997 40.0032 32.7996C38.0937 32.7996 36.2624 33.5581 34.9122 34.9084C33.5619 36.2586 32.8034 38.0899 32.8034 39.9995C32.8034 41.909 33.5619 43.7402 34.9122 45.0905C36.2624 46.4407 38.0937 47.1993 40.0032 47.1993C40.9487 47.1991 41.8849 47.0127 42.7584 46.6508C43.6318 46.2888 44.4255 45.7583 45.0939 45.0896C45.7624 44.421 46.2926 43.6272 46.6543 42.7536C47.0159 41.88 47.202 40.9437 47.2019 39.9983C47.2017 39.0527 47.0153 38.1165 46.6534 37.2431C46.2914 36.3696 45.7609 35.576 45.0922 34.9075C44.4236 34.2391 43.6298 33.7089 42.7562 33.3472Z" fill="#0DB0B8"/>
<path d="M50.4817 25.2785C51.0442 24.7159 51.8073 24.3998 52.6029 24.3998C53.3986 24.3998 54.1616 24.7159 54.7242 25.2785C55.2868 25.841 55.6029 26.6041 55.6029 27.3997C55.6029 28.1954 55.2868 28.9584 54.7242 29.521C54.1616 30.0836 53.3986 30.3996 52.6029 30.3996C51.8073 30.3996 51.0442 30.0836 50.4817 29.521C49.9191 28.9584 49.603 28.1954 49.603 27.3997C49.603 26.6041 49.9191 25.841 50.4817 25.2785Z" fill="#0DB0B8"/>
<path fill-rule="evenodd" clip-rule="evenodd" d="M6.15385 0C2.75518 0 0 2.75518 0 6.15385V73.8462C0 77.2448 2.75518 80 6.15385 80H73.8462C77.2448 80 80 77.2448 80 73.8462V6.15385C80 2.75518 77.2448 0 73.8462 0H6.15385ZM47.7215 16.0552C46.5383 16.0216 45.1679 16.0072 42.468 16L37.5337 16.0024C35.7832 15.9965 34.0326 16.0149 32.2826 16.0576L31.817 16.072C31.2794 16.0912 30.7467 16.1152 30.1082 16.144C27.5523 16.264 25.8124 16.6672 24.2812 17.26C22.6808 17.8623 21.2311 18.8066 20.0333 20.0271C18.8086 21.2248 17.8616 22.6764 17.2589 24.2798C16.6662 25.811 16.263 27.5509 16.143 30.1069C16.1142 30.7453 16.0902 31.2756 16.071 31.8157L16.0542 32.2812C16.0123 34.0312 15.9947 35.7818 16.0014 37.5323V42.4666C15.9971 44.2171 16.0172 45.9676 16.0614 47.7176L16.0734 48.1832C16.0947 48.7529 16.1187 49.3226 16.1454 49.892C16.2654 52.4479 16.6686 54.1903 17.2613 55.7191C17.8643 57.3212 18.8094 58.7725 20.0309 59.9718C21.229 61.193 22.6797 62.1374 24.2812 62.7389C25.8124 63.3317 27.5547 63.7349 30.1082 63.8549C30.6777 63.8829 31.2473 63.9077 31.817 63.9293L32.2826 63.9437C34.0334 63.9865 35.7847 64.0049 37.5361 63.9989H40.6776L42.468 63.9965C45.1679 63.9917 46.5383 63.9749 47.7215 63.9413L48.187 63.9269C48.5971 63.9117 49.0071 63.895 49.4171 63.8767C49.5767 63.8697 49.7363 63.8624 49.8958 63.8549C52.4493 63.7349 54.1917 63.3317 55.7204 62.7389C57.322 62.1359 58.7731 61.1917 59.9731 59.9718C61.195 58.7733 62.1395 57.3217 62.7403 55.7191C63.3307 54.1879 63.7387 52.4479 63.8587 49.892L63.8598 49.8678C63.8881 49.2402 63.9117 48.7164 63.9307 48.1832L63.9451 47.7176C63.9878 45.9676 64.0062 44.2171 64.0003 42.4666V39.3226L63.9979 37.5323C63.9931 34.8323 63.9787 33.462 63.9427 32.2812L63.9283 31.8157C63.9093 31.2825 63.8857 30.7587 63.8574 30.1311L63.8563 30.1069C63.7363 27.5509 63.3331 25.8086 62.7403 24.2798C62.1378 22.678 61.1935 21.2269 59.9731 20.0271C58.6388 18.6952 57.3044 17.8696 55.7204 17.26C54.1917 16.6672 52.4493 16.264 49.8958 16.144C49.255 16.1152 48.7246 16.0912 48.187 16.072L47.7215 16.0552Z" fill="#0DB0B8"/>
</svg>
