<svg width="80" height="80" viewBox="0 0 80 80" fill="none" xmlns="http://www.w3.org/2000/svg">
<path fill-rule="evenodd" clip-rule="evenodd" d="M6.15385 0C2.75518 0 0 2.75518 0 6.15385V73.8462C0 77.2448 2.75518 80 6.15385 80H73.8462C77.2448 80 80 77.2448 80 73.8462V6.15385C80 2.75518 77.2448 0 73.8462 0H6.15385ZM14.6018 36.5264L59.8535 18.9511C63.2354 17.5837 64.5619 19.1562 63.784 22.7252L56.2916 58.4572C55.7207 61.3567 54.2771 62.3776 51.624 60.7956L40.2011 52.1805L33.5313 58.5368C32.7121 59.2508 31.4278 59.2441 30.7264 57.8076L31.4837 48.5039L55.5913 26.5197C56.9414 25.313 55.3724 25.0206 53.8398 26.1174L25.7707 43.5891L14.1616 39.8733C12.1648 38.9838 12.7808 37.3448 14.6018 36.5264Z" fill="#0DB0B8"/>
</svg>
