<svg width="80" height="80" viewBox="0 0 80 80" fill="none" xmlns="http://www.w3.org/2000/svg">
<path fill-rule="evenodd" clip-rule="evenodd" d="M6.15385 0C2.75518 0 0 2.75518 0 6.15385V73.8462C0 77.2448 2.75518 80 6.15385 80H73.8462C77.2448 80 80 77.2448 80 73.8462V6.15385C80 2.75518 77.2448 0 73.8462 0H6.15385ZM67.2848 21.5385C69.3436 21.5385 69.7735 22.581 69.3436 23.997H69.341C68.4787 27.8949 60.1916 39.3733 60.1916 39.3733C59.4717 40.5066 59.1843 41.0746 60.1916 42.348C60.5477 42.8375 61.3058 43.5677 62.1729 44.4029C63.0651 45.2622 64.0726 46.2327 64.8764 47.1665C67.795 50.4005 69.9962 53.1261 70.6125 55.0038C71.172 56.8918 70.1982 57.8462 68.2559 57.8462H61.458C59.6351 57.8462 58.7183 56.8428 56.736 54.6732C55.8966 53.7544 54.8661 52.6264 53.4947 51.277C49.46 47.4518 47.7327 46.9539 46.7227 46.9539C45.3527 46.9539 44.9436 47.3351 44.9436 49.2464V55.245C44.9436 56.8918 44.4101 57.8462 40.0879 57.8462C32.8808 57.8462 24.9693 53.5437 19.3496 45.6079C10.9202 33.9868 8.61539 25.2003 8.61539 23.4316C8.61539 22.4384 9.00383 21.5385 10.9461 21.5385H17.7492C19.4869 21.5385 20.1395 22.2854 20.7843 24.1396C24.1121 33.6678 29.7188 41.9953 32.0236 41.9953C32.8886 41.9953 33.2848 41.6037 33.2848 39.4434V29.5936C33.1295 26.7905 32.1335 25.5779 31.3958 24.6798C30.9406 24.1255 30.5837 23.691 30.5837 23.0763C30.5837 22.3268 31.2337 21.5385 32.3136 21.5385H43.0039C44.4437 21.5385 44.9202 22.2957 44.9202 23.997V37.2467C44.9202 38.6653 45.5702 39.1607 46.0027 39.1607C46.8677 39.1607 47.5876 38.6653 49.1725 37.1041C54.0696 31.7202 57.5269 23.4316 57.5269 23.4316C57.9593 22.4384 58.757 21.5385 60.4869 21.5385H67.2848Z" fill="#0DB0B8"/>
</svg>
